<?xml version="1.0" encoding="UTF-8" standalone="no"?>
<svg
   width="1000"
   height="1000"
   viewBox="0 0 264.5833 264.5833"
   inkscape:version="1.2 (dc2aeda, 2022-05-15)"
   sodipodi:docname="Instagram_logo_2022.svg"
   version="1.1"
   id="svg48"
   xmlns:inkscape="http://www.inkscape.org/namespaces/inkscape"
   xmlns:sodipodi="http://sodipodi.sourceforge.net/DTD/sodipodi-0.dtd"
   xmlns:xlink="http://www.w3.org/1999/xlink"
   xmlns="http://www.w3.org/2000/svg"
   xmlns:svg="http://www.w3.org/2000/svg">
  <defs
     id="defs32">
    <radialGradient
       id="f"
       cx="158.429"
       cy="578.088"
       r="52.3515"
       xlink:href="#a"
       gradientUnits="userSpaceOnUse"
       gradientTransform="matrix(0,-0.30494593,0.32354124,0,-181.72299,69.852685)"
       fx="158.429"
       fy="578.088" />
    <radialGradient
       inkscape:collect="always"
       xlink:href="#b"
       id="g"
       gradientUnits="userSpaceOnUse"
       gradientTransform="matrix(0.05097903,-0.0878385,0.11435568,0.06636927,-66.986965,-4.9873366)"
       cx="172.6149"
       cy="600.6924"
       fx="172.6149"
       fy="600.6924"
       r="65" />
    <radialGradient
       inkscape:collect="always"
       xlink:href="#c"
       id="h"
       cx="144.012"
       cy="51.3367"
       fx="144.012"
       fy="51.3367"
       r="67.081"
       gradientTransform="matrix(-0.18133421,0.05106066,-0.01739188,-0.06178167,29.720694,-3.3672873)"
       gradientUnits="userSpaceOnUse" />
    <radialGradient
       inkscape:collect="always"
       xlink:href="#d"
       id="e"
       gradientUnits="userSpaceOnUse"
       gradientTransform="matrix(-0.23493322,0.06625664,-0.04773544,-0.16925784,96.289878,102.50499)"
       cx="199.7884"
       cy="628.4379"
       fx="199.7884"
       fy="628.4379"
       r="52.3515" />
    <linearGradient
       inkscape:collect="always"
       id="d">
      <stop
         offset="0"
         stop-color="#ff005f"
         id="stop6" />
      <stop
         offset="1"
         stop-color="#fc01d8"
         id="stop8" />
    </linearGradient>
    <linearGradient
       id="c">
      <stop
         offset="0"
         stop-color="#780cff"
         id="stop11" />
      <stop
         stop-color="#820bff"
         offset="1"
         stop-opacity="0"
         id="stop13" />
    </linearGradient>
    <linearGradient
       inkscape:collect="always"
       id="b">
      <stop
         offset="0"
         stop-color="#fc0"
         id="stop16" />
      <stop
         offset="1"
         stop-color="#fc0"
         stop-opacity="0"
         id="stop18" />
    </linearGradient>
    <linearGradient
       id="a">
      <stop
         offset="0"
         stop-color="#fc0"
         id="stop21" />
      <stop
         offset=".1242"
         stop-color="#fc0"
         id="stop23" />
      <stop
         offset=".5672"
         stop-color="#fe4a05"
         id="stop25" />
      <stop
         offset=".6942"
         stop-color="#ff0f3f"
         id="stop27" />
      <stop
         offset="1"
         stop-color="#fe0657"
         stop-opacity="0"
         id="stop29" />
    </linearGradient>
  </defs>
  <sodipodi:namedview
     pagecolor="#ffffff"
     bordercolor="#666666"
     borderopacity="1"
     inkscape:pageopacity="0"
     inkscape:pageshadow="2"
     inkscape:zoom="0.515"
     inkscape:cx="219.41748"
     inkscape:cy="159.2233"
     inkscape:document-units="mm"
     inkscape:current-layer="g46"
     inkscape:document-rotation="0"
     showgrid="false"
     inkscape:window-width="1309"
     inkscape:window-height="456"
     inkscape:window-x="0"
     inkscape:window-y="25"
     inkscape:window-maximized="0"
     id="namedview34"
     inkscape:showpageshadow="2"
     inkscape:pagecheckerboard="0"
     inkscape:deskcolor="#d1d1d1" />
  <g
     inkscape:label="Layer 1"
     inkscape:groupmode="layer"
     id="g46">
    <path
       d="M 10.003243,0 C 5.8283371,0 4.6073304,0.00430866 4.3699912,0.02400001 3.5132325,0.09523654 2.9801073,0.23017325 2.3992846,0.51942055 1.9516826,0.74175505 1.5986671,0.99946595 1.2502701,1.3607283 0.615778,2.019553 0.23123367,2.8300803 0.09202609,3.7935501 0.02434985,4.2612818 0.00465852,4.3566696 6.5977282e-4,6.7458 c -0.001534494,0.7963765 0,1.8444625 0,3.250273 0,4.172659 0.004611027,5.392767 0.0246122872,5.629713 0.06921829,0.833915 0.19995972,1.358574 0.47683289,1.932472 0.52913395,1.09855 1.53970425,1.923236 2.73025575,2.230957 0.4122331,0.10616 0.8675302,0.164629 1.4520343,0.192318 C 4.9320448,19.992305 7.4561796,20 9.9818574,20 c 2.5256856,0 5.0513636,-0.0031 5.2928516,-0.01538 0.6768,-0.03186 1.069803,-0.08462 1.504335,-0.196944 1.19824,-0.309256 2.190365,-1.121635 2.730256,-2.235575 0.271492,-0.560051 0.409156,-1.104711 0.471459,-1.895086 0.01353,-0.172316 0.01922,-2.919784 0.01922,-5.6635475 0,-2.7442395 -0.0062,-5.4866272 -0.01969,-5.658951 C 19.917226,3.5313718 19.77956,2.9913302 19.499307,2.420508 19.269354,1.9532374 19.014015,1.6042811 18.64332,1.2474937 17.981751,0.61543565 17.172668,0.23078554 16.20854,0.09169891 15.74139,0.02415118 15.648338,0.00414992 13.258013,0 Z"
       inkscape:connector-curvature="0"
       fill="url(#e)"
       id="path36"
       style="fill:url(#e);stroke-width:0.0755904" />
    <path
       d="M 10.003243,0 C 5.8283371,0 4.6073304,0.00430866 4.3699912,0.02400001 3.5132325,0.09523654 2.9801073,0.23017325 2.3992846,0.51942055 1.9516826,0.74175505 1.5986671,0.99946595 1.2502701,1.3607283 0.615778,2.019553 0.23123367,2.8300803 0.09202609,3.7935501 0.02434985,4.2612818 0.00465852,4.3566696 6.5977282e-4,6.7458 c -0.001534494,0.7963765 0,1.8444625 0,3.250273 0,4.172659 0.004611027,5.392767 0.0246122872,5.629713 0.06921829,0.833915 0.19995972,1.358574 0.47683289,1.932472 0.52913395,1.09855 1.53970425,1.923236 2.73025575,2.230957 0.4122331,0.10616 0.8675302,0.164629 1.4520343,0.192318 C 4.9320448,19.992305 7.4561796,20 9.9818574,20 c 2.5256856,0 5.0513636,-0.0031 5.2928516,-0.01538 0.6768,-0.03186 1.069803,-0.08462 1.504335,-0.196944 1.19824,-0.309256 2.190365,-1.121635 2.730256,-2.235575 0.271492,-0.560051 0.409156,-1.104711 0.471459,-1.895086 0.01353,-0.172316 0.01922,-2.919784 0.01922,-5.6635475 0,-2.7442395 -0.0062,-5.4866272 -0.01969,-5.658951 C 19.917226,3.5313718 19.77956,2.9913302 19.499307,2.420508 19.269354,1.9532374 19.014015,1.6042811 18.64332,1.2474937 17.981751,0.61543565 17.172668,0.23078554 16.20854,0.09169891 15.74139,0.02415118 15.648338,0.00414992 13.258013,0 Z"
       inkscape:connector-curvature="0"
       fill="url(#f)"
       id="path38"
       style="fill:url(#f);stroke-width:0.0755904" />
    <path
       d="M 10.003243,0 C 5.8283371,0 4.6073304,0.00430866 4.3699912,0.02400001 3.5132325,0.09523654 2.9801073,0.23017325 2.3992846,0.51942055 1.9516826,0.74175505 1.5986671,0.99946595 1.2502701,1.3607283 0.615778,2.019553 0.23123367,2.8300803 0.09202609,3.7935501 0.02434985,4.2612818 0.00465852,4.3566696 6.5977282e-4,6.7458 c -0.001534494,0.7963765 0,1.8444625 0,3.250273 0,4.172659 0.004611027,5.392767 0.0246122872,5.629713 0.06921829,0.833915 0.19995972,1.358574 0.47683289,1.932472 0.52913395,1.09855 1.53970425,1.923236 2.73025575,2.230957 0.4122331,0.10616 0.8675302,0.164629 1.4520343,0.192318 C 4.9320448,19.992305 7.4561796,20 9.9818574,20 c 2.5256856,0 5.0513636,-0.0031 5.2928516,-0.01538 0.6768,-0.03186 1.069803,-0.08462 1.504335,-0.196944 1.19824,-0.309256 2.190365,-1.121635 2.730256,-2.235575 0.271492,-0.560051 0.409156,-1.104711 0.471459,-1.895086 0.01353,-0.172316 0.01922,-2.919784 0.01922,-5.6635475 0,-2.7442395 -0.0062,-5.4866272 -0.01969,-5.658951 C 19.917226,3.5313718 19.77956,2.9913302 19.499307,2.420508 19.269354,1.9532374 19.014015,1.6042811 18.64332,1.2474937 17.981751,0.61543565 17.172668,0.23078554 16.20854,0.09169891 15.74139,0.02415118 15.648338,0.00414992 13.258013,0 Z"
       inkscape:connector-curvature="0"
       fill="url(#g)"
       id="path40"
       style="fill:url(#g);stroke-width:0.0755904" />
    <path
       d="M 10.003243,0 C 5.8283371,0 4.6073304,0.00430866 4.3699912,0.02400001 3.5132325,0.09523654 2.9801073,0.23017325 2.3992846,0.51942055 1.9516826,0.74175505 1.5986671,0.99946595 1.2502701,1.3607283 0.615778,2.019553 0.23123367,2.8300803 0.09202609,3.7935501 0.02434985,4.2612818 0.00465852,4.3566696 6.5977282e-4,6.7458 c -0.001534494,0.7963765 0,1.8444625 0,3.250273 0,4.172659 0.004611027,5.392767 0.0246122872,5.629713 0.06921829,0.833915 0.19995972,1.358574 0.47683289,1.932472 0.52913395,1.09855 1.53970425,1.923236 2.73025575,2.230957 0.4122331,0.10616 0.8675302,0.164629 1.4520343,0.192318 C 4.9320448,19.992305 7.4561796,20 9.9818574,20 c 2.5256856,0 5.0513636,-0.0031 5.2928516,-0.01538 0.6768,-0.03186 1.069803,-0.08462 1.504335,-0.196944 1.19824,-0.309256 2.190365,-1.121635 2.730256,-2.235575 0.271492,-0.560051 0.409156,-1.104711 0.471459,-1.895086 0.01353,-0.172316 0.01922,-2.919784 0.01922,-5.6635475 0,-2.7442395 -0.0062,-5.4866272 -0.01969,-5.658951 C 19.917226,3.5313718 19.77956,2.9913302 19.499307,2.420508 19.269354,1.9532374 19.014015,1.6042811 18.64332,1.2474937 17.981751,0.61543565 17.172668,0.23078554 16.20854,0.09169891 15.74139,0.02415118 15.648338,0.00414992 13.258013,0 Z"
       inkscape:connector-curvature="0"
       fill="url(#h)"
       id="path42"
       style="fill:url(#h);stroke-width:0.0755904" />
    <path
       d="m 10.004029,2.5680381 c -2.019531,0 -2.2729788,0.00882 -3.0661734,0.044894 C 6.1462188,2.6491546 5.605859,2.7743931 5.1330408,2.9581537 4.6439616,3.1479387 4.2290828,3.4018171 3.8157611,3.8149876 3.4021295,4.2280144 3.1480545,4.6425757 2.9575057,5.13114 2.773148,5.6037625 2.6476601,6.1438725 2.6120342,6.9346175 2.5765592,7.727215 2.5672622,7.980632 2.5672622,9.998666 c 0,2.018041 0.00899,2.270521 0.044923,3.063119 0.036412,0.791055 0.1617412,1.331013 0.3454716,1.803476 0.1900876,0.488724 0.444155,0.903285 0.8576355,1.316304 0.4131779,0.413329 0.8280493,0.667835 1.316818,0.857621 0.4731224,0.183753 1.0136469,0.308991 1.8051256,0.345222 0.7931945,0.03606 1.0464842,0.04489 3.0658621,0.04489 2.019689,0 2.272367,-0.0088 3.065553,-0.0449 0.791646,-0.03623 1.332624,-0.161462 1.805746,-0.345223 0.488927,-0.189777 0.903186,-0.444283 1.316356,-0.857612 0.413632,-0.413019 0.667707,-0.82758 0.858256,-1.316145 0.1828,-0.472622 0.308289,-1.012732 0.345472,-1.803477 0.03562,-0.792597 0.04492,-1.045244 0.04492,-3.0632775 0,-2.0180415 -0.0093,-2.2712925 -0.04492,-3.0638975 C 17.357301,6.143711 17.231809,5.60376 17.049009,5.1312965 16.85846,4.6425757 16.604385,4.2280068 16.190753,3.8149876 15.777114,3.4016584 15.363475,3.1477799 14.873935,2.9581459 14.399876,2.7743928 13.859207,2.6491544 13.067571,2.6129314 12.274376,2.5768596 12.021858,2.5680381 10.001707,2.5680381 Z M 9.3369415,3.9071022 c 0.1979945,-3.099e-4 0.4189073,0 0.6670875,0 1.985454,0 2.220774,0.00712 3.004823,0.042724 0.725026,0.033132 1.118521,0.1541821 1.380646,0.2558892 0.347021,0.1346797 0.594429,0.29568 0.854537,0.5557494 0.260265,0.2600767 0.42138,0.5077642 0.556474,0.8545207 0.101783,0.261619 0.223084,0.654826 0.256079,1.379316 0.03563,0.7833075 0.04337,1.018613 0.04337,3.0016635 0,1.983043 -0.0077,2.218356 -0.04337,3.001664 -0.03315,0.724482 -0.154296,1.117689 -0.256079,1.379308 -0.134777,0.346764 -0.296209,0.593681 -0.556474,0.853591 -0.260259,0.260077 -0.507365,0.42107 -0.854537,0.55575 -0.261815,0.102176 -0.65562,0.222916 -1.380646,0.256048 -0.78389,0.03561 -1.019369,0.04334 -3.004823,0.04334 -1.9856065,0 -2.2209269,-0.0077 -3.0048242,-0.04334 C 6.2741855,16.00989 5.8806918,15.888834 5.6184076,15.787126 5.2713859,15.652447 5.0235091,15.491447 4.763251,15.231377 4.5029852,14.971308 4.3418715,14.72424 4.206776,14.377317 4.1049933,14.115698 3.9836931,13.722491 3.9506978,12.998008 3.9150638,12.214694 3.9079368,11.979395 3.9079368,9.9951055 c 0,-1.9842825 0.00713,-2.218356 0.042761,-3.0016635 C 3.9838518,6.268952 4.1049933,5.8757525 4.206776,5.6138235 4.3415539,5.2670595 4.5029852,5.019372 4.763251,4.7593027 5.0235091,4.4992257 5.2713859,4.338233 5.6184076,4.2032433 5.8805321,4.1010676 6.2741855,3.9803268 6.9992048,3.9470367 7.6851887,3.9160747 7.9510336,3.9067922 9.3369491,3.9052352 Z m 4.6364465,1.2337893 c -0.492647,0 -0.892347,0.3989365 -0.892347,0.8913635 0,0.492284 0.3997,0.8916815 0.892347,0.8916815 0.492638,0 0.892338,-0.3993975 0.892338,-0.8916815 0,-0.4922755 -0.3997,-0.891666 -0.892346,-0.891666 z M 10.004029,6.182726 c -2.1089244,0 -3.8187679,1.708581 -3.8187679,3.81594 0,2.107359 1.7098435,3.815162 3.8187679,3.815162 2.108923,0 3.818155,-1.707803 3.818155,-3.815162 0,-2.107359 -1.709383,-3.81594 -3.818307,-3.81594 z m 0,1.339064 c 1.368869,0 2.47872,1.108868 2.47872,2.476876 0,1.367857 -1.109851,2.476876 -2.47872,2.476876 -1.3690221,0 -2.4787134,-1.109019 -2.4787134,-2.476876 0,-1.368008 1.1096913,-2.476876 2.4787134,-2.476876 z"
       inkscape:connector-curvature="0"
       fill="#ffffff"
       id="path44"
       style="stroke-width:0.0755904" />
  </g>
</svg>
